Coordinates
version=1
nRows=6
nColumns=63
inDegrees=yes

Units are S.I. units (second, meters, Newtons, ...)
If the header above contains a line with 'inDegrees', this indicates whether rotational values are in degrees (yes) or radians (no).

endheader
time	pelvis_tilt	pelvis_list	pelvis_rotation	pelvis_tx	pelvis_ty	pelvis_tz	hip_flexion_r	hip_adduction_r	hip_rotation_r	knee_angle_r	knee_angle_r_beta	ankle_angle_r	subtalar_angle_r	mtp_angle_r	hip_flexion_l	hip_adduction_l	hip_rotation_l	knee_angle_l	knee_angle_l_beta	ankle_angle_l	subtalar_angle_l	mtp_angle_l	L5_S1_Flex_Ext	L5_S1_Lat_Bending	L5_S1_axial_rotation	L4_L5_Flex_Ext	L4_L5_Lat_Bending	L4_L5_axial_rotation	L3_L4_Flex_Ext	L3_L4_Lat_Bending	L3_L4_axial_rotation	L2_L3_Flex_Ext	L2_L3_Lat_Bending	L2_L3_axial_rotation	L1_L2_Flex_Ext	L1_L2_Lat_Bending	L1_L2_axial_rotation	L1_T12_Flex_Ext	L1_T12_Lat_Bending	L1_T12_axial_rotation	Abs_r3	Abs_r2	Abs_r1	Abs_t1	Abs_t2	neck_flexion	neck_bending	neck_rotation	arm_flex_r	arm_add_r	arm_rot_r	elbow_flex_r	pro_sup_r	wrist_flex_r	wrist_dev_r	arm_flex_l	arm_add_l	arm_rot_l	elbow_flex_l	pro_sup_l	wrist_flex_l	wrist_dev_l
5.440678	3.123649	-4.287654	80.979334	0.168976	0.977725	0.352029	2.014752	0.629582	-9.834280	14.189963	0.247662	35.023402	17.383296	0.000000	0.508930	0.190547	-9.361836	14.050515	0.245228	30.171783	-6.519326	0.000000	0.034027	0.121478	-0.155473	0.063191	0.161566	-0.165191	0.055902	0.295363	-0.165191	0.038889	0.295363	-0.136039	0.031597	0.247719	-0.126322	0.019443	0.188170	-0.116605	0.243049	1.374189	-0.864697	0.000000	0.000000	3.166835	6.703268	1.836807	-9.074372	-14.761116	32.931577	114.605663	85.055166	4.045262	21.743606	-9.087552	-17.221348	23.123556	115.151238	73.155316	-3.154745	11.603808
5.457627	3.151685	-4.420790	81.312121	0.167908	0.977915	0.351440	1.979050	0.612843	-10.295345	13.999999	0.244346	34.786509	17.409166	0.000000	0.533023	0.159497	-9.455873	13.928827	0.243104	29.836608	-6.236759	0.000000	0.046452	0.129547	-0.097206	0.086265	0.172297	-0.103281	0.076315	0.314980	-0.103281	0.053090	0.314980	-0.085055	0.043135	0.264172	-0.078980	0.026542	0.200668	-0.072904	0.331800	1.465461	-0.540631	0.000000	0.000000	4.209502	6.352453	1.490689	-9.391880	-14.625194	32.354103	114.959771	84.400828	3.405498	22.028651	-9.063772	-17.457123	23.509839	115.327206	74.004604	-2.419947	10.836765
5.474576	3.188827	-4.539681	81.671106	0.166694	0.978029	0.350823	1.958458	0.590300	-10.778290	13.864240	0.241977	34.629936	17.444287	0.000000	0.548626	0.133940	-9.484790	13.824780	0.241288	29.522088	-6.050981	0.000000	0.056599	0.136853	-0.032776	0.105109	0.182015	-0.034824	0.092986	0.332745	-0.034824	0.064686	0.332745	-0.028679	0.052557	0.279071	-0.026630	0.032340	0.211986	-0.024582	0.404278	1.548111	-0.182288	0.000000	0.000000	5.077217	5.830978	1.014156	-9.849352	-14.619149	31.736734	115.318148	83.797857	3.074044	22.362500	-9.143990	-17.745358	23.881863	115.554005	74.920766	-1.555398	9.787690
5.491525	3.243408	-4.640414	82.059783	0.165356	0.978031	0.350212	1.936637	0.581590	-11.250639	13.750218	0.239987	34.548905	17.458765	0.000000	0.557109	0.099772	-9.473383	13.744342	0.239884	29.278138	-5.904257	0.000000	0.063954	0.144993	0.026376	0.118768	0.192841	0.028024	0.105069	0.352536	0.028024	0.073093	0.352536	0.023079	0.059387	0.295670	0.021430	0.036543	0.224594	0.019782	0.456815	1.640189	0.146695	0.000000	0.000000	5.753106	5.183466	0.525825	-10.440033	-14.728506	30.981682	115.563941	83.405652	3.585886	22.802605	-9.381051	-18.065949	24.189406	115.781342	75.722069	-0.500979	8.584000
5.508475	3.322519	-4.712132	82.453520	0.163900	0.977927	0.349651	1.912936	0.587597	-11.706669	13.673184	0.238642	34.546377	17.480447	0.000000	0.559449	0.052426	-9.423070	13.709287	0.239272	29.116806	-5.810957	0.000000	0.067093	0.154344	0.078355	0.124598	0.205278	0.083252	0.110227	0.375273	0.083252	0.076680	0.375273	0.068561	0.062302	0.314739	0.063664	0.038337	0.239080	0.058766	0.479237	1.745975	0.435788	0.000000	0.000000	6.202315	4.474187	-0.028676	-11.111293	-15.027764	30.206833	115.625797	83.207790	4.561067	23.288105	-9.761604	-18.398779	24.438842	115.919588	76.492351	0.682904	7.410918
5.525424	3.423236	-4.753328	82.849687	0.162342	0.977725	0.349148	1.872961	0.611247	-12.129388	13.605314	0.237458	34.606802	17.497465	0.000000	0.559370	-0.006942	-9.335164	13.722106	0.239496	29.043823	-5.751012	0.000000	0.066445	0.165111	0.117073	0.123396	0.219597	0.124390	0.109163	0.401450	0.124390	0.075940	0.401450	0.102439	0.061701	0.336694	0.095122	0.037967	0.255756	0.087805	0.474613	1.867764	0.651124	0.000000	0.000000	6.443052	3.781547	-0.561814	-11.836832	-15.518391	29.452871	115.415713	83.251474	5.815695	23.675638	-10.271355	-18.731814	24.619808	115.871016	77.205138	1.959526	6.380195
